<?xml version="1.0" standalone="no"?>
<!DOCTYPE svg PUBLIC "-//W3C//DTD SVG 20010904//EN"
 "http://www.w3.org/TR/2001/REC-SVG-20010904/DTD/svg10.dtd">
<svg version="1.0" xmlns="http://www.w3.org/2000/svg"
 width="180.000000pt" height="180.000000pt" viewBox="0 0 180.000000 180.000000"
 preserveAspectRatio="xMidYMid meet">

<g transform="translate(0.000000,180.000000) scale(0.100000,-0.100000)"
fill="#000000" stroke="none">
<path d="M0 900 l0 -900 900 0 900 0 0 900 0 900 -900 0 -900 0 0 -900z m550
291 c5 -11 10 -69 10 -130 0 -67 4 -111 10 -111 6 0 10 28 11 63 0 34 4 82 7
107 6 40 10 45 32 45 l25 0 0 -140 c0 -77 4 -146 8 -152 13 -20 42 -15 71 12
29 27 74 33 94 13 21 -21 13 -35 -32 -62 -31 -18 -54 -43 -76 -80 -43 -76 -80
-112 -126 -125 -105 -29 -190 9 -213 95 -20 75 -51 277 -45 296 8 25 43 23 53
-4 5 -13 12 -47 16 -75 11 -81 25 -73 17 9 -4 40 -7 100 -7 133 0 55 2 60 22
63 29 4 43 -29 43 -101 0 -70 11 -128 22 -121 5 3 6 57 2 129 -4 68 -4 130 -1
139 9 22 44 20 57 -3z m706 -95 c-31 -57 -56 -108 -56 -114 0 -7 35 -12 98
-14 l99 -3 -116 -105 c-63 -58 -141 -129 -173 -159 -32 -30 -58 -51 -58 -46 0
4 32 54 71 112 39 58 69 106 67 109 -3 2 -46 5 -96 6 -51 2 -92 5 -92 8 0 5
303 310 308 310 2 0 -22 -47 -52 -104z"/>
</g>
</svg>
