<?xml version="1.0" encoding="UTF-8"?>
<svg version="1.1" xmlns="http://www.w3.org/2000/svg" width="42" height="54">
<path d="M0 0 C13.86 0 27.72 0 42 0 C42 17.82 42 35.64 42 54 C28.14 54 14.28 54 0 54 C0 36.18 0 18.36 0 0 Z " fill="#FBF8F0" transform="translate(0,0)"/>
<path d="M0 0 C-0.11458693 1.43836751 -0.24209116 2.87570966 -0.375 4.3125 C-0.44460937 5.11300781 -0.51421875 5.91351563 -0.5859375 6.73828125 C-1 9 -1 9 -3 12 C1.29 12 5.58 12 10 12 C10.33 12.99 10.66 13.98 11 15 C9.8828125 16.7265625 9.8828125 16.7265625 8.125 18.625 C7.16207031 19.66527344 7.16207031 19.66527344 6.1796875 20.7265625 C5.46039062 21.47679688 4.74109375 22.22703125 4 23 C3.21882813 23.83273438 2.43765625 24.66546875 1.6328125 25.5234375 C-2.93596756 30.27197284 -2.93596756 30.27197284 -5 32 C-5.99 32 -6.98 32 -8 32 C-7.88541307 30.56163249 -7.75790884 29.12429034 -7.625 27.6875 C-7.52058594 26.48673828 -7.52058594 26.48673828 -7.4140625 25.26171875 C-7 23 -7 23 -5 20 C-9.29 20 -13.58 20 -18 20 C-18.33 19.01 -18.66 18.02 -19 17 C-17.8828125 15.2734375 -17.8828125 15.2734375 -16.125 13.375 C-15.16207031 12.33472656 -15.16207031 12.33472656 -14.1796875 11.2734375 C-13.46039062 10.52320313 -12.74109375 9.77296875 -12 9 C-11.21882812 8.16726562 -10.43765625 7.33453125 -9.6328125 6.4765625 C-3.40141956 0 -3.40141956 0 0 0 Z " fill="#F6A301" transform="translate(26,12)"/>
<path d="M0 0 C-1.65863505 4.32504836 -4.871041 7.09418825 -8.125 10.25 C-8.68832031 10.80429687 -9.25164063 11.35859375 -9.83203125 11.9296875 C-11.21686028 13.29104485 -12.60783204 14.64614859 -14 16 C-14.66 15.34 -15.32 14.68 -16 14 C-13.71643754 11.65861457 -11.42186626 9.32833018 -9.125 7 C-8.47402344 6.33226562 -7.82304687 5.66453125 -7.15234375 4.9765625 C-6.52714844 4.34492188 -5.90195312 3.71328125 -5.2578125 3.0625 C-4.6817627 2.47597656 -4.10571289 1.88945312 -3.51220703 1.28515625 C-2 0 -2 0 0 0 Z " fill="#FBEED6" transform="translate(23,11)"/>
</svg>
